<svg width="180" height="14" viewBox="0 0 180 14" fill="none" xmlns="http://www.w3.org/2000/svg">
<g id="Call : +234 80978534">
<path id="Vector" d="M175.283 13.8323C174.455 13.8323 173.716 13.6848 173.068 13.3898C172.424 13.0948 171.912 12.6848 171.531 12.1599C171.154 11.6306 170.949 11.0168 170.916 10.3183H172.497C172.531 10.7478 172.673 11.1187 172.924 11.4311C173.175 11.7391 173.503 11.9777 173.909 12.1469C174.315 12.3161 174.764 12.4007 175.258 12.4007C175.81 12.4007 176.299 12.3009 176.726 12.1013C177.153 11.9018 177.487 11.6241 177.73 11.2684C177.972 10.9126 178.094 10.5005 178.094 10.032C178.094 9.54173 177.977 9.11007 177.742 8.73698C177.508 8.35955 177.165 8.06454 176.713 7.85196C176.262 7.63939 175.709 7.5331 175.057 7.5331H174.028V6.10146H175.057C175.567 6.10146 176.015 6.00601 176.4 5.81513C176.789 5.62424 177.092 5.35527 177.309 5.0082C177.531 4.66114 177.642 4.25334 177.642 3.7848C177.642 3.33362 177.546 2.941 177.353 2.60695C177.161 2.2729 176.889 2.0126 176.538 1.82606C176.19 1.63951 175.781 1.54624 175.308 1.54624C174.865 1.54624 174.446 1.63083 174.053 1.80003C173.664 1.96488 173.346 2.20566 173.099 2.52236C172.853 2.83471 172.719 3.21215 172.698 3.65465H171.192C171.217 2.95619 171.42 2.34448 171.801 1.81955C172.181 1.29028 172.679 0.878137 173.294 0.583133C173.913 0.288128 174.593 0.140625 175.333 0.140625C176.128 0.140625 176.81 0.30765 177.378 0.641699C177.947 0.97141 178.384 1.40741 178.69 1.9497C178.995 2.49199 179.148 3.07766 179.148 3.70671C179.148 4.45724 178.957 5.09714 178.577 5.62641C178.2 6.15569 177.688 6.52227 177.04 6.72617V6.83029C177.851 6.96912 178.485 7.32703 178.941 7.90402C179.397 8.47668 179.625 9.18599 179.625 10.032C179.625 10.7565 179.434 11.4072 179.054 11.9842C178.677 12.5569 178.163 13.008 177.51 13.3378C176.858 13.6675 176.115 13.8323 175.283 13.8323Z" fill="white"/>
<path id="Vector_2" d="M164.034 13.8323C163.206 13.8323 162.467 13.6848 161.819 13.3898C161.175 13.0948 160.662 12.6848 160.282 12.1599C159.905 11.6306 159.7 11.0168 159.667 10.3183H161.248C161.282 10.7478 161.424 11.1187 161.675 11.4311C161.926 11.7391 162.254 11.9777 162.66 12.1469C163.065 12.3161 163.515 12.4007 164.009 12.4007C164.561 12.4007 165.05 12.3009 165.477 12.1013C165.903 11.9018 166.238 11.6241 166.481 11.2684C166.723 10.9126 166.845 10.5005 166.845 10.032C166.845 9.54173 166.728 9.11007 166.493 8.73698C166.259 8.35955 165.916 8.06454 165.464 7.85196C165.013 7.63939 164.46 7.5331 163.808 7.5331H162.779V6.10146H163.808C164.318 6.10146 164.766 6.00601 165.151 5.81513C165.54 5.62424 165.843 5.35527 166.06 5.0082C166.282 4.66114 166.393 4.25334 166.393 3.7848C166.393 3.33362 166.297 2.941 166.104 2.60695C165.912 2.2729 165.64 2.0126 165.289 1.82606C164.941 1.63951 164.532 1.54624 164.059 1.54624C163.616 1.54624 163.197 1.63083 162.804 1.80003C162.415 1.96488 162.097 2.20566 161.85 2.52236C161.604 2.83471 161.47 3.21215 161.449 3.65465H159.943C159.968 2.95619 160.171 2.34448 160.552 1.81955C160.932 1.29028 161.43 0.878137 162.045 0.583133C162.664 0.288128 163.344 0.140625 164.084 0.140625C164.879 0.140625 165.561 0.30765 166.129 0.641699C166.698 0.97141 167.135 1.40741 167.441 1.9497C167.746 2.49199 167.899 3.07766 167.899 3.70671C167.899 4.45724 167.708 5.09714 167.328 5.62641C166.951 6.15569 166.439 6.52227 165.791 6.72617V6.83029C166.602 6.96912 167.236 7.32703 167.692 7.90402C168.148 8.47668 168.376 9.18599 168.376 10.032C168.376 10.7565 168.185 11.4072 167.805 11.9842C167.428 12.5569 166.914 13.008 166.261 13.3378C165.609 13.6675 164.866 13.8323 164.034 13.8323Z" fill="white"/>
<path id="Vector_3" d="M152.958 13.8337C152.222 13.8337 151.559 13.6819 150.969 13.3782C150.379 13.0745 149.907 12.658 149.551 12.1287C149.196 11.5995 149.001 10.9965 148.968 10.3197H150.474C150.532 10.9227 150.796 11.4216 151.264 11.8164C151.737 12.2068 152.301 12.4021 152.958 12.4021C153.485 12.4021 153.954 12.2741 154.364 12.0181C154.778 11.7622 155.102 11.4108 155.336 10.9639C155.574 10.5127 155.694 10.003 155.694 9.43466C155.694 8.85333 155.57 8.3349 155.323 7.87938C155.081 7.41952 154.746 7.05727 154.32 6.79263C153.893 6.528 153.406 6.39351 152.858 6.38917C152.465 6.38483 152.061 6.44774 151.647 6.57789C151.233 6.7037 150.892 6.86638 150.624 7.06595L149.169 6.88374L149.947 0.324219H156.622V1.75586H151.252L150.8 5.68636H150.875C151.139 5.46945 151.469 5.28941 151.866 5.14625C152.264 5.00308 152.678 4.9315 153.109 4.9315C153.895 4.9315 154.596 5.12672 155.211 5.51717C155.83 5.90328 156.315 6.43255 156.666 7.10499C157.022 7.77743 157.199 8.54531 157.199 9.40863C157.199 10.2589 157.015 11.0181 156.647 11.6862C156.283 12.35 155.781 12.8749 155.142 13.261C154.502 13.6428 153.774 13.8337 152.958 13.8337Z" fill="white"/>
<path id="Vector_4" d="M142.172 13.8333C141.31 13.8333 140.549 13.6749 139.888 13.3583C139.231 13.0372 138.719 12.5969 138.351 12.0372C137.983 11.4733 137.801 10.8312 137.805 10.111C137.801 9.54705 137.907 9.02645 138.125 8.54924C138.342 8.06769 138.639 7.66639 139.016 7.34536C139.396 7.01999 139.821 6.81392 140.289 6.72715V6.64906C139.675 6.48421 139.185 6.1263 138.821 5.57533C138.457 5.02003 138.277 4.3888 138.282 3.68166C138.277 3.00488 138.443 2.39969 138.777 1.86608C139.112 1.33247 139.572 0.911651 140.158 0.603631C140.747 0.295611 141.419 0.141602 142.172 0.141602C142.916 0.141602 143.581 0.295611 144.167 0.603631C144.752 0.911651 145.212 1.33247 145.547 1.86608C145.886 2.39969 146.057 3.00488 146.062 3.68166C146.057 4.3888 145.871 5.02003 145.503 5.57533C145.139 6.1263 144.656 6.48421 144.054 6.64906V6.72715C144.518 6.81392 144.936 7.01999 145.309 7.34536C145.681 7.66639 145.978 8.06769 146.2 8.54924C146.421 9.02645 146.534 9.54705 146.538 10.111C146.534 10.8312 146.346 11.4733 145.974 12.0372C145.606 12.5969 145.093 13.0372 144.437 13.3583C143.784 13.6749 143.029 13.8333 142.172 13.8333ZM142.172 12.4017C142.753 12.4017 143.255 12.304 143.677 12.1088C144.1 11.9136 144.426 11.6381 144.656 11.2824C144.886 10.9266 145.003 10.5102 145.008 10.0329C145.003 9.5297 144.878 9.08502 144.631 8.69891C144.384 8.3128 144.048 8.00912 143.621 7.78787C143.198 7.56661 142.715 7.45599 142.172 7.45599C141.624 7.45599 141.134 7.56661 140.703 7.78787C140.277 8.00912 139.94 8.3128 139.693 8.69891C139.451 9.08502 139.332 9.5297 139.336 10.0329C139.332 10.5102 139.442 10.9266 139.668 11.2824C139.898 11.6381 140.227 11.9136 140.653 12.1088C141.08 12.304 141.586 12.4017 142.172 12.4017ZM142.172 6.07641C142.632 6.07641 143.04 5.98096 143.395 5.79008C143.755 5.59919 144.037 5.33239 144.242 4.98966C144.447 4.64693 144.552 4.24564 144.556 3.78578C144.552 3.33459 144.449 2.94198 144.248 2.60793C144.048 2.26954 143.769 2.00924 143.414 1.82703C143.058 1.64049 142.644 1.54721 142.172 1.54721C141.691 1.54721 141.27 1.64049 140.911 1.82703C140.551 2.00924 140.273 2.26954 140.076 2.60793C139.879 2.94198 139.783 3.33459 139.787 3.78578C139.783 4.24564 139.882 4.64693 140.082 4.98966C140.287 5.33239 140.57 5.59919 140.929 5.79008C141.289 5.98096 141.703 6.07641 142.172 6.07641Z" fill="white"/>
<path id="Vector_5" d="M128.623 13.6515L134.37 1.85998V1.75586H127.744V0.324219H135.976V1.83395L130.254 13.6515H128.623Z" fill="white"/>
<path id="Vector_6" d="M121.631 0.141235C122.158 0.145573 122.685 0.249693 123.212 0.453593C123.739 0.657494 124.221 0.995882 124.656 1.46876C125.091 1.93729 125.44 2.57719 125.703 3.38846C125.967 4.19972 126.099 5.21705 126.099 6.44046C126.099 7.62481 125.99 8.67685 125.772 9.59657C125.559 10.512 125.249 11.2842 124.844 11.9132C124.442 12.5423 123.953 13.0195 123.376 13.3449C122.803 13.6702 122.154 13.8329 121.431 13.8329C120.711 13.8329 120.069 13.6854 119.504 13.3904C118.944 13.0911 118.484 12.6768 118.124 12.1475C117.769 11.6139 117.541 10.9957 117.44 10.2929H118.971C119.109 10.9046 119.383 11.41 119.793 11.8091C120.207 12.2039 120.753 12.4013 121.431 12.4013C122.422 12.4013 123.204 11.9523 123.777 11.0542C124.354 10.1562 124.643 8.88726 124.643 7.24738H124.543C124.308 7.6118 124.03 7.92632 123.708 8.19096C123.386 8.4556 123.028 8.6595 122.635 8.80266C122.242 8.94583 121.824 9.01741 121.38 9.01741C120.644 9.01741 119.969 8.82869 119.354 8.45126C118.743 8.06949 118.254 7.54672 117.886 6.88296C117.522 6.21486 117.34 5.45132 117.34 4.59234C117.34 3.77674 117.516 3.03055 117.867 2.35377C118.222 1.67266 118.72 1.13037 119.36 0.726907C120.004 0.323444 120.761 0.12822 121.631 0.141235ZM121.631 1.57288C121.104 1.57288 120.63 1.70953 120.207 1.98285C119.789 2.25182 119.456 2.61624 119.21 3.0761C118.967 3.53162 118.846 4.03703 118.846 4.59234C118.846 5.14764 118.963 5.65305 119.197 6.10857C119.435 6.55976 119.76 6.91984 120.169 7.18881C120.584 7.45345 121.054 7.58577 121.581 7.58577C121.979 7.58577 122.349 7.50551 122.692 7.34499C123.035 7.18014 123.334 6.95671 123.589 6.67472C123.848 6.3884 124.051 6.06519 124.198 5.70511C124.344 5.34069 124.417 4.96109 124.417 4.56631C124.417 4.04571 124.296 3.55765 124.053 3.10213C123.815 2.64661 123.484 2.27785 123.062 1.99586C122.644 1.71387 122.167 1.57288 121.631 1.57288Z" fill="white"/>
<path id="Vector_7" d="M110.69 13.8333C109.745 13.8333 108.939 13.5665 108.274 13.0329C107.609 12.4949 107.101 11.7162 106.75 10.6967C106.398 9.67286 106.223 8.43644 106.223 6.98745C106.223 5.54713 106.398 4.31722 106.75 3.29772C107.105 2.27388 107.616 1.49298 108.281 0.955034C108.95 0.412746 109.753 0.141602 110.69 0.141602C111.627 0.141602 112.428 0.412746 113.093 0.955034C113.762 1.49298 114.272 2.27388 114.624 3.29772C114.979 4.31722 115.157 5.54713 115.157 6.98745C115.157 8.43644 114.981 9.67286 114.63 10.6967C114.279 11.7162 113.77 12.4949 113.105 13.0329C112.44 13.5665 111.635 13.8333 110.69 13.8333ZM110.69 12.4017C111.627 12.4017 112.355 11.9331 112.873 10.996C113.392 10.059 113.651 8.72277 113.651 6.98745C113.651 5.83346 113.532 4.85083 113.294 4.03957C113.059 3.22831 112.721 2.6101 112.277 2.18494C111.838 1.75979 111.309 1.54721 110.69 1.54721C109.761 1.54721 109.036 2.02226 108.513 2.97235C107.99 3.9181 107.728 5.25646 107.728 6.98745C107.728 8.14144 107.846 9.12189 108.08 9.92882C108.314 10.7357 108.651 11.3496 109.09 11.7704C109.533 12.1912 110.067 12.4017 110.69 12.4017Z" fill="white"/>
<path id="Vector_8" d="M99.7263 13.8333C98.8647 13.8333 98.1034 13.6749 97.4425 13.3583C96.7858 13.0372 96.2734 12.5969 95.9053 12.0372C95.5373 11.4733 95.3553 10.8312 95.3595 10.111C95.3553 9.54705 95.462 9.02645 95.6795 8.54924C95.897 8.06769 96.194 7.66639 96.5704 7.34536C96.951 7.01999 97.3756 6.81392 97.8441 6.72715V6.64906C97.2292 6.48421 96.7398 6.1263 96.3759 5.57533C96.012 5.02003 95.8321 4.3888 95.8363 3.68166C95.8321 3.00488 95.9974 2.39969 96.332 1.86608C96.6666 1.33247 97.1267 0.911651 97.7123 0.603631C98.3021 0.295611 98.9734 0.141602 99.7263 0.141602C100.471 0.141602 101.136 0.295611 101.721 0.603631C102.307 0.911651 102.767 1.33247 103.102 1.86608C103.441 2.39969 103.612 3.00488 103.616 3.68166C103.612 4.3888 103.426 5.02003 103.058 5.57533C102.694 6.1263 102.211 6.48421 101.609 6.64906V6.72715C102.073 6.81392 102.491 7.01999 102.863 7.34536C103.236 7.66639 103.533 8.06769 103.754 8.54924C103.976 9.02645 104.089 9.54705 104.093 10.111C104.089 10.8312 103.901 11.4733 103.528 12.0372C103.16 12.5969 102.648 13.0372 101.991 13.3583C101.339 13.6749 100.584 13.8333 99.7263 13.8333ZM99.7263 12.4017C100.308 12.4017 100.81 12.304 101.232 12.1088C101.655 11.9136 101.981 11.6381 102.211 11.2824C102.441 10.9266 102.558 10.5102 102.562 10.0329C102.558 9.5297 102.433 9.08502 102.186 8.69891C101.939 8.3128 101.602 8.00912 101.176 7.78787C100.753 7.56661 100.27 7.45599 99.7263 7.45599C99.1784 7.45599 98.689 7.56661 98.2582 7.78787C97.8315 8.00912 97.4948 8.3128 97.248 8.69891C97.0054 9.08502 96.8862 9.5297 96.8904 10.0329C96.8862 10.5102 96.997 10.9266 97.2229 11.2824C97.453 11.6381 97.7813 11.9136 98.208 12.1088C98.6346 12.304 99.1407 12.4017 99.7263 12.4017ZM99.7263 6.07641C100.186 6.07641 100.594 5.98096 100.95 5.79008C101.309 5.59919 101.592 5.33239 101.797 4.98966C102.002 4.64693 102.106 4.24564 102.11 3.78578C102.106 3.33459 102.004 2.94198 101.803 2.60793C101.602 2.26954 101.324 2.00924 100.969 1.82703C100.613 1.64049 100.199 1.54721 99.7263 1.54721C99.2453 1.54721 98.8249 1.64049 98.4652 1.82703C98.1055 2.00924 97.8273 2.26954 97.6307 2.60793C97.4341 2.94198 97.3379 3.33459 97.3421 3.78578C97.3379 4.24564 97.4362 4.64693 97.637 4.98966C97.842 5.33239 98.1243 5.59919 98.484 5.79008C98.8437 5.98096 99.2578 6.07641 99.7263 6.07641Z" fill="white"/>
<path id="Vector_9" d="M79.0059 10.9184V9.59084L84.6526 0.324219H85.5812V2.38058H84.9538L80.6873 9.3826V9.48672H88.2916V10.9184H79.0059ZM85.0541 13.6515V10.5149V9.89669V0.324219H86.5349V13.6515H85.0541Z" fill="white"/>
<path id="Vector_10" d="M72.3981 13.8323C71.5699 13.8323 70.8316 13.6848 70.1833 13.3898C69.5391 13.0948 69.0267 12.6848 68.6461 12.1599C68.2697 11.6306 68.0647 11.0168 68.0312 10.3183H69.6123C69.6458 10.7478 69.788 11.1187 70.039 11.4311C70.2899 11.7391 70.6183 11.9777 71.024 12.1469C71.4297 12.3161 71.8794 12.4007 72.373 12.4007C72.9251 12.4007 73.4145 12.3009 73.8411 12.1013C74.2678 11.9018 74.6024 11.6241 74.845 11.2684C75.0876 10.9126 75.2089 10.5005 75.2089 10.032C75.2089 9.54173 75.0918 9.11007 74.8575 8.73698C74.6233 8.35955 74.2803 8.06454 73.8286 7.85196C73.3768 7.63939 72.8247 7.5331 72.1722 7.5331H71.1432V6.10146H72.1722C72.6825 6.10146 73.13 6.00601 73.5149 5.81513C73.9039 5.62424 74.2071 5.35527 74.4246 5.0082C74.6463 4.66114 74.7571 4.25334 74.7571 3.7848C74.7571 3.33362 74.6609 2.941 74.4685 2.60695C74.2761 2.2729 74.0042 2.0126 73.6529 1.82606C73.3057 1.63951 72.8958 1.54624 72.4232 1.54624C71.9798 1.54624 71.5615 1.63083 71.1683 1.80003C70.7793 1.96488 70.4614 2.20566 70.2147 2.52236C69.9679 2.83471 69.834 3.21215 69.8131 3.65465H68.3073C68.3324 2.95619 68.5353 2.34448 68.9159 1.81955C69.2965 1.29028 69.7943 0.878137 70.4092 0.583133C71.0282 0.288128 71.7079 0.140625 72.4483 0.140625C73.243 0.140625 73.9248 0.30765 74.4936 0.641699C75.0625 0.97141 75.4996 1.40741 75.8049 1.9497C76.1103 2.49199 76.2629 3.07766 76.2629 3.70671C76.2629 4.45724 76.0726 5.09714 75.692 5.62641C75.3155 6.15569 74.8032 6.52227 74.1548 6.72617V6.83029C74.9663 6.96912 75.6 7.32703 76.0559 7.90402C76.5118 8.47668 76.7398 9.18599 76.7398 10.032C76.7398 10.7565 76.5495 11.4072 76.1688 11.9842C75.7924 12.5569 75.2779 13.008 74.6254 13.3378C73.9729 13.6675 73.2304 13.8323 72.3981 13.8323Z" fill="white"/>
<path id="Vector_11" d="M57.3594 13.6511V12.4797L61.6007 7.66422C62.0985 7.10024 62.5084 6.61002 62.8304 6.19354C63.1525 5.77272 63.3909 5.37794 63.5457 5.00918C63.7046 4.63609 63.7841 4.24564 63.7841 3.83784C63.7841 3.3693 63.6754 2.96367 63.4579 2.62094C63.2445 2.27822 62.9517 2.01358 62.5795 1.82703C62.2072 1.64049 61.7889 1.54721 61.3246 1.54721C60.8311 1.54721 60.4003 1.6535 60.0322 1.86608C59.6683 2.07432 59.3859 2.36715 59.1852 2.74458C58.9886 3.12202 58.8903 3.56453 58.8903 4.07211H57.4096C57.4096 3.29121 57.5832 2.60576 57.9303 2.01575C58.2775 1.42574 58.7502 0.965879 59.3483 0.636168C59.9506 0.306457 60.6261 0.141602 61.3748 0.141602C62.1277 0.141602 62.7949 0.306457 63.3763 0.636168C63.9577 0.965879 64.4136 1.41056 64.7441 1.9702C65.0745 2.52984 65.2397 3.15239 65.2397 3.83784C65.2397 4.32807 65.154 4.80745 64.9825 5.27599C64.8152 5.74019 64.5224 6.25861 64.1041 6.83127C63.69 7.39959 63.1149 8.09372 62.3787 8.91366L59.4926 12.1153V12.2194H65.4656V13.6511H57.3594Z" fill="white"/>
<path id="Vector_12" d="M50.1072 11.3086V2.71875H51.5126V11.3086H50.1072ZM46.6689 7.74251V6.28484H54.9508V7.74251H46.6689Z" fill="white"/>
<path id="Vector_13" d="M37.5864 13.7553C37.2769 13.7553 37.0112 13.6404 36.7896 13.4104C36.5679 13.1805 36.457 12.905 36.457 12.584C36.457 12.263 36.5679 11.9875 36.7896 11.7575C37.0112 11.5276 37.2769 11.4126 37.5864 11.4126C37.8959 11.4126 38.1615 11.5276 38.3832 11.7575C38.6049 11.9875 38.7157 12.263 38.7157 12.584C38.7157 12.7966 38.6634 12.9918 38.5589 13.1697C38.4585 13.3475 38.3225 13.4907 38.1511 13.5991C37.9837 13.7033 37.7955 13.7553 37.5864 13.7553ZM37.5864 6.33683C37.2769 6.33683 37.0112 6.22186 36.7896 5.99193C36.5679 5.762 36.457 5.48652 36.457 5.16548C36.457 4.84445 36.5679 4.56897 36.7896 4.33904C37.0112 4.10911 37.2769 3.99414 37.5864 3.99414C37.8959 3.99414 38.1615 4.10911 38.3832 4.33904C38.6049 4.56897 38.7157 4.84445 38.7157 5.16548C38.7157 5.37806 38.6634 5.57328 38.5589 5.75115C38.4585 5.92902 38.3225 6.07219 38.1511 6.18065C37.9837 6.28477 37.7955 6.33683 37.5864 6.33683Z" fill="white"/>
<path id="Vector_14" d="M28.8264 0.324219V13.6515H27.3457V0.324219H28.8264Z" fill="white"/>
<path id="Vector_15" d="M24.633 0.324219V13.6515H23.1523V0.324219H24.633Z" fill="white"/>
<path id="Vector_16" d="M16.0318 13.8853C15.4211 13.8853 14.8669 13.766 14.3691 13.5274C13.8714 13.2844 13.4761 12.9352 13.1833 12.4797C12.8905 12.0198 12.7441 11.4645 12.7441 10.8137C12.7441 10.2411 12.8529 9.77689 13.0704 9.42115C13.2879 9.06107 13.5786 8.77908 13.9425 8.57518C14.3064 8.37128 14.708 8.21944 15.1471 8.11966C15.5905 8.01554 16.036 7.93311 16.4835 7.87237C17.0691 7.79428 17.5439 7.73572 17.9078 7.69667C18.2759 7.65329 18.5436 7.58171 18.7109 7.48193C18.8824 7.38214 18.9681 7.20861 18.9681 6.96133V6.90927C18.9681 6.2672 18.7987 5.76829 18.4599 5.41255C18.1253 5.05681 17.6171 4.87894 16.9353 4.87894C16.2284 4.87894 15.6742 5.03946 15.2726 5.36049C14.8711 5.68153 14.5887 6.02425 14.4256 6.38867L13.0202 5.86808C13.2712 5.26071 13.6058 4.78784 14.0241 4.44945C14.4465 4.10672 14.9066 3.86812 15.4044 3.73363C15.9063 3.5948 16.3999 3.52539 16.8851 3.52539C17.1946 3.52539 17.5501 3.56444 17.9517 3.64252C18.3574 3.71628 18.7485 3.87029 19.125 4.10455C19.5056 4.33882 19.8214 4.69239 20.0724 5.16527C20.3233 5.63815 20.4488 6.27154 20.4488 7.06545V13.651H18.9681V12.2974H18.8928C18.7924 12.5144 18.6251 12.7465 18.3909 12.9937C18.1566 13.241 17.845 13.4514 17.456 13.625C17.067 13.7985 16.5923 13.8853 16.0318 13.8853ZM16.2577 12.5057C16.8433 12.5057 17.3368 12.3864 17.7384 12.1478C18.1441 11.9092 18.4494 11.6011 18.6544 11.2237C18.8635 10.8463 18.9681 10.4493 18.9681 10.0329V8.62724C18.9054 8.70533 18.7673 8.77691 18.554 8.84198C18.3449 8.90272 18.1023 8.95695 17.8262 9.00467C17.5543 9.04806 17.2887 9.0871 17.0294 9.12181C16.7742 9.15217 16.5672 9.1782 16.4083 9.19989C16.0234 9.25195 15.6637 9.33655 15.3291 9.45369C14.9987 9.56648 14.731 9.73785 14.526 9.96778C14.3252 10.1934 14.2248 10.5014 14.2248 10.8918C14.2248 11.4254 14.4152 11.8289 14.7958 12.1022C15.1806 12.3712 15.6679 12.5057 16.2577 12.5057Z" fill="white"/>
<path id="Vector_17" d="M10.8837 4.48858H9.32775C9.23573 4.02439 9.07469 3.61658 8.84464 3.26518C8.61877 2.91378 8.3427 2.61877 8.01645 2.38017C7.69438 2.13722 7.33675 1.95501 6.94357 1.83354C6.55039 1.71207 6.14048 1.65133 5.71383 1.65133C4.93584 1.65133 4.23104 1.85523 3.59944 2.26303C2.97202 2.67083 2.47218 3.27169 2.09992 4.0656C1.73183 4.85951 1.54779 5.83346 1.54779 6.98745C1.54779 8.14144 1.73183 9.11539 2.09992 9.9093C2.47218 10.7032 2.97202 11.3041 3.59944 11.7119C4.23104 12.1197 4.93584 12.3236 5.71383 12.3236C6.14048 12.3236 6.55039 12.2628 6.94357 12.1414C7.33675 12.0199 7.69438 11.8398 8.01645 11.6012C8.3427 11.3583 8.61877 11.0611 8.84464 10.7097C9.07469 10.354 9.23573 9.94617 9.32775 9.48631H10.8837C10.7666 10.1674 10.5533 10.777 10.2438 11.3149C9.93425 11.8529 9.54943 12.3106 9.08933 12.688C8.62922 13.0611 8.11265 13.3452 7.53961 13.5405C6.97076 13.7357 6.36216 13.8333 5.71383 13.8333C4.61795 13.8333 3.64336 13.5556 2.79007 13.0003C1.93679 12.445 1.26545 11.6555 0.776069 10.6316C0.286684 9.60779 0.0419922 8.39306 0.0419922 6.98745C0.0419922 5.58184 0.286684 4.36711 0.776069 3.34327C1.26545 2.31943 1.93679 1.52986 2.79007 0.974557C3.64336 0.419253 4.61795 0.141602 5.71383 0.141602C6.36216 0.141602 6.97076 0.239214 7.53961 0.434437C8.11265 0.629661 8.62922 0.91599 9.08933 1.29342C9.54943 1.66652 9.93425 2.12204 10.2438 2.65999C10.5533 3.1936 10.7666 3.80313 10.8837 4.48858Z" fill="white"/>
</g>
</svg>
