<svg width="175" height="18" viewBox="0 0 175 18" fill="none" xmlns="http://www.w3.org/2000/svg">
<g id="Career Opportunities">
<path id="Vector" d="M173.969 6.12848L172.639 6.51893C172.555 6.289 172.432 6.06557 172.268 5.84866C172.11 5.62741 171.892 5.4452 171.616 5.30203C171.34 5.15887 170.986 5.08729 170.556 5.08729C169.966 5.08729 169.474 5.22828 169.081 5.51027C168.692 5.78792 168.498 6.1415 168.498 6.57099C168.498 6.95276 168.632 7.25427 168.899 7.47552C169.167 7.69678 169.585 7.88116 170.154 8.02866L171.585 8.39308C172.446 8.60999 173.088 8.94187 173.511 9.38872C173.933 9.83123 174.144 10.4017 174.144 11.1002C174.144 11.6728 173.985 12.1848 173.668 12.6359C173.354 13.0871 172.915 13.4429 172.35 13.7032C171.785 13.9635 171.129 14.0936 170.38 14.0936C169.397 14.0936 168.583 13.8724 167.939 13.4298C167.295 12.9873 166.887 12.3409 166.716 11.4906L168.121 11.1262C168.255 11.6642 168.508 12.0676 168.88 12.3366C169.257 12.6056 169.748 12.7401 170.355 12.7401C171.045 12.7401 171.593 12.5882 171.999 12.2845C172.409 11.9765 172.614 11.6078 172.614 11.1783C172.614 10.8312 172.496 10.5405 172.262 10.3063C172.028 10.0677 171.668 9.88979 171.183 9.77266L169.577 9.38221C168.694 9.1653 168.046 8.82908 167.632 8.37355C167.222 7.91369 167.017 7.33887 167.017 6.64908C167.017 6.0851 167.17 5.58619 167.475 5.15236C167.785 4.71853 168.205 4.37797 168.736 4.13069C169.271 3.88341 169.878 3.75977 170.556 3.75977C171.509 3.75977 172.258 3.97668 172.802 4.41051C173.35 4.84434 173.739 5.417 173.969 6.12848Z" fill="white"/>
<path id="Vector_2" d="M160.898 14.0936C159.969 14.0936 159.168 13.881 158.495 13.4559C157.825 13.0264 157.309 12.4277 156.945 11.6598C156.585 10.8876 156.405 9.98957 156.405 8.96573C156.405 7.94189 156.585 7.03952 156.945 6.25863C157.309 5.4734 157.815 4.8617 158.463 4.42353C159.116 3.98102 159.877 3.75977 160.747 3.75977C161.249 3.75977 161.745 3.84653 162.234 4.02006C162.723 4.1936 163.169 4.47559 163.57 4.86603C163.972 5.25214 164.292 5.76406 164.53 6.40179C164.769 7.03952 164.888 7.82476 164.888 8.75749V9.40824H157.459V8.08072H163.382C163.382 7.51674 163.273 7.01349 163.056 6.57099C162.843 6.12848 162.537 5.77925 162.14 5.52329C161.747 5.26733 161.282 5.13935 160.747 5.13935C160.157 5.13935 159.647 5.29119 159.216 5.59487C158.789 5.89421 158.461 6.28466 158.231 6.76621C158.001 7.24776 157.886 7.76402 157.886 8.31499V9.2C157.886 9.95487 158.011 10.5948 158.262 11.1197C158.518 11.6403 158.871 12.0373 159.323 12.3106C159.774 12.5795 160.299 12.714 160.898 12.714C161.287 12.714 161.638 12.6576 161.952 12.5448C162.27 12.4277 162.543 12.2542 162.774 12.0242C163.004 11.79 163.181 11.4993 163.307 11.1522L164.737 11.5687C164.587 12.072 164.334 12.5145 163.978 12.8962C163.623 13.2737 163.183 13.5687 162.661 13.7813C162.138 13.9895 161.55 14.0936 160.898 14.0936Z" fill="white"/>
<path id="Vector_3" d="M152.664 13.8844V3.88892H154.145V13.8844H152.664ZM153.417 2.22301C153.129 2.22301 152.88 2.12106 152.671 1.91716C152.466 1.71326 152.363 1.46815 152.363 1.18182C152.363 0.89549 152.466 0.650376 152.671 0.446475C152.88 0.242575 153.129 0.140625 153.417 0.140625C153.706 0.140625 153.953 0.242575 154.158 0.446475C154.367 0.650376 154.471 0.89549 154.471 1.18182C154.471 1.46815 154.367 1.71326 154.158 1.91716C153.953 2.12106 153.706 2.22301 153.417 2.22301Z" fill="white"/>
<path id="Vector_4" d="M150.438 3.88889V5.19038H145.443V3.88889H150.438ZM146.899 1.49414H148.38V11.0211C148.38 11.4549 148.44 11.7803 148.562 11.9972C148.687 12.2098 148.846 12.3529 149.038 12.4267C149.235 12.4961 149.442 12.5308 149.66 12.5308C149.823 12.5308 149.957 12.5221 150.061 12.5048C150.166 12.4831 150.249 12.4657 150.312 12.4527L150.613 13.8323C150.513 13.8713 150.373 13.9104 150.193 13.9494C150.013 13.9928 149.785 14.0145 149.509 14.0145C149.091 14.0145 148.681 13.9212 148.279 13.7347C147.882 13.5481 147.551 13.264 147.288 12.8822C147.029 12.5004 146.899 12.0189 146.899 11.4375V1.49414Z" fill="white"/>
<path id="Vector_5" d="M142.054 13.8844V3.88892H143.535V13.8844H142.054ZM142.807 2.22301C142.518 2.22301 142.27 2.12106 142.06 1.91716C141.855 1.71326 141.753 1.46815 141.753 1.18182C141.753 0.89549 141.855 0.650376 142.06 0.446475C142.27 0.242575 142.518 0.140625 142.807 0.140625C143.096 0.140625 143.342 0.242575 143.547 0.446475C143.756 0.650376 143.861 0.89549 143.861 1.18182C143.861 1.46815 143.756 1.71326 143.547 1.91716C143.342 2.12106 143.096 2.22301 142.807 2.22301Z" fill="white"/>
<path id="Vector_6" d="M133.199 7.87248V13.8854H131.719V3.88991H133.149V5.4517H133.275C133.501 4.94412 133.844 4.53632 134.304 4.2283C134.764 3.91594 135.358 3.75977 136.086 3.75977C136.738 3.75977 137.309 3.89859 137.798 4.17624C138.288 4.44956 138.668 4.86603 138.94 5.42567C139.212 5.98098 139.348 6.68378 139.348 7.53409V13.8854H137.867V7.63821C137.867 6.85298 137.671 6.24128 137.278 5.80311C136.884 5.3606 136.345 5.13935 135.659 5.13935C135.186 5.13935 134.764 5.24563 134.392 5.45821C134.023 5.67079 133.733 5.98098 133.519 6.38878C133.306 6.79658 133.199 7.29115 133.199 7.87248Z" fill="white"/>
<path id="Vector_7" d="M127.526 9.79842V3.88965H129.006V13.8851H127.526V12.1932H127.425C127.199 12.7007 126.848 13.1324 126.371 13.4881C125.894 13.8396 125.292 14.0153 124.564 14.0153C123.962 14.0153 123.426 13.8786 122.958 13.6053C122.489 13.3276 122.121 12.9112 121.854 12.3559C121.586 11.7962 121.452 11.0912 121.452 10.2409V3.88965H122.933V10.1368C122.933 10.8656 123.129 11.447 123.523 11.8808C123.92 12.3146 124.426 12.5316 125.041 12.5316C125.409 12.5316 125.783 12.4339 126.164 12.2387C126.549 12.0435 126.871 11.7442 127.13 11.3407C127.394 10.9372 127.526 10.4231 127.526 9.79842Z" fill="white"/>
<path id="Vector_8" d="M119.226 3.88889V5.19038H114.231V3.88889H119.226ZM115.687 1.49414H117.168V11.0211C117.168 11.4549 117.228 11.7803 117.35 11.9972C117.475 12.2098 117.634 12.3529 117.827 12.4267C118.023 12.4961 118.23 12.5308 118.448 12.5308C118.611 12.5308 118.745 12.5221 118.849 12.5048C118.954 12.4831 119.037 12.4657 119.1 12.4527L119.401 13.8323C119.301 13.8713 119.161 13.9104 118.981 13.9494C118.801 13.9928 118.573 14.0145 118.297 14.0145C117.879 14.0145 117.469 13.9212 117.067 13.7347C116.67 13.5481 116.34 13.264 116.076 12.8822C115.817 12.5004 115.687 12.0189 115.687 11.4375V1.49414Z" fill="white"/>
<path id="Vector_9" d="M107.856 13.8841V3.8886H109.287V5.39833H109.387C109.563 4.90377 109.881 4.50247 110.341 4.19445C110.801 3.88643 111.32 3.73242 111.897 3.73242C112.006 3.73242 112.142 3.73459 112.305 3.73893C112.468 3.74327 112.591 3.74978 112.675 3.75845V5.32024C112.625 5.30723 112.51 5.2877 112.33 5.26167C112.154 5.23131 111.968 5.21612 111.772 5.21612C111.303 5.21612 110.885 5.31807 110.517 5.52197C110.153 5.72154 109.864 5.99919 109.651 6.35493C109.442 6.70633 109.337 7.10762 109.337 7.55881V13.8841H107.856Z" fill="white"/>
<path id="Vector_10" d="M101.229 14.0936C100.359 14.0936 99.5957 13.8789 98.939 13.4494C98.2865 13.0199 97.7762 12.419 97.4082 11.6468C97.0443 10.8746 96.8623 9.97222 96.8623 8.9397C96.8623 7.89851 97.0443 6.98963 97.4082 6.21308C97.7762 5.43652 98.2865 4.8335 98.939 4.404C99.5957 3.97451 100.359 3.75977 101.229 3.75977C102.099 3.75977 102.86 3.97451 103.513 4.404C104.17 4.8335 104.68 5.43652 105.044 6.21308C105.412 6.98963 105.596 7.89851 105.596 8.9397C105.596 9.97222 105.412 10.8746 105.044 11.6468C104.68 12.419 104.17 13.0199 103.513 13.4494C102.86 13.8789 102.099 14.0936 101.229 14.0936ZM101.229 12.714C101.89 12.714 102.434 12.5383 102.86 12.1869C103.287 11.8355 103.603 11.3735 103.808 10.8008C104.013 10.2282 104.115 9.6078 104.115 8.9397C104.115 8.2716 104.013 7.64906 103.808 7.07206C103.603 6.49507 103.287 6.0287 102.86 5.67296C102.434 5.31722 101.89 5.13935 101.229 5.13935C100.568 5.13935 100.024 5.31722 99.5978 5.67296C99.1712 6.0287 98.8554 6.49507 98.6504 7.07206C98.4455 7.64906 98.343 8.2716 98.343 8.9397C98.343 9.6078 98.4455 10.2282 98.6504 10.8008C98.8554 11.3735 99.1712 11.8355 99.5978 12.1869C100.024 12.5383 100.568 12.714 101.229 12.714Z" fill="white"/>
<path id="Vector_11" d="M86.5479 17.6337V3.88991H87.9784V5.47773H88.154C88.2628 5.3042 88.4134 5.08295 88.6058 4.81397C88.8024 4.54066 89.0826 4.29772 89.4465 4.08514C89.8146 3.86822 90.3123 3.75977 90.9398 3.75977C91.7512 3.75977 92.4665 3.97017 93.0855 4.39099C93.7046 4.8118 94.1877 5.40832 94.5349 6.18054C94.882 6.95276 95.0556 7.8638 95.0556 8.91367C95.0556 9.97222 94.882 10.8898 94.5349 11.6663C94.1877 12.4385 93.7067 13.0372 93.0918 13.4624C92.4769 13.8832 91.768 14.0936 90.9649 14.0936C90.3458 14.0936 89.8502 13.9873 89.4779 13.7747C89.1056 13.5578 88.8191 13.3127 88.6183 13.0394C88.4176 12.7618 88.2628 12.5318 88.154 12.3496H88.0286V17.6337H86.5479ZM88.0035 8.88764C88.0035 9.64251 88.1101 10.3084 88.3234 10.8854C88.5368 11.4581 88.8484 11.9071 89.2583 12.2325C89.6682 12.5535 90.1701 12.714 90.7641 12.714C91.3831 12.714 91.8997 12.5448 92.3138 12.2064C92.7321 11.8637 93.0458 11.4039 93.2549 10.8269C93.4683 10.2455 93.5749 9.59913 93.5749 8.88764C93.5749 8.18484 93.4703 7.55144 93.2612 6.98746C93.0562 6.41915 92.7446 5.97013 92.3264 5.64042C91.9123 5.30637 91.3915 5.13935 90.7641 5.13935C90.1618 5.13935 89.6557 5.29769 89.2457 5.61439C88.8358 5.92675 88.5263 6.36492 88.3172 6.9289C88.108 7.48854 88.0035 8.14145 88.0035 8.88764Z" fill="white"/>
<path id="Vector_12" d="M75.7812 17.6337V3.88991H77.2118V5.47773H77.3874C77.4962 5.3042 77.6468 5.08295 77.8392 4.81397C78.0358 4.54066 78.316 4.29772 78.6799 4.08514C79.048 3.86822 79.5457 3.75977 80.1732 3.75977C80.9846 3.75977 81.6999 3.97017 82.3189 4.39099C82.938 4.8118 83.4211 5.40832 83.7683 6.18054C84.1154 6.95276 84.289 7.8638 84.289 8.91367C84.289 9.97222 84.1154 10.8898 83.7683 11.6663C83.4211 12.4385 82.9401 13.0372 82.3252 13.4624C81.7103 13.8832 81.0014 14.0936 80.1983 14.0936C79.5792 14.0936 79.0836 13.9873 78.7113 13.7747C78.339 13.5578 78.0525 13.3127 77.8517 13.0394C77.6509 12.7618 77.4962 12.5318 77.3874 12.3496H77.262V17.6337H75.7812ZM77.2369 8.88764C77.2369 9.64251 77.3435 10.3084 77.5568 10.8854C77.7702 11.4581 78.0818 11.9071 78.4917 12.2325C78.9016 12.5535 79.4035 12.714 79.9975 12.714C80.6165 12.714 81.1331 12.5448 81.5472 12.2064C81.9655 11.8637 82.2792 11.4039 82.4883 10.8269C82.7017 10.2455 82.8083 9.59913 82.8083 8.88764C82.8083 8.18484 82.7037 7.55144 82.4946 6.98746C82.2896 6.41915 81.978 5.97013 81.5598 5.64042C81.1457 5.30637 80.6249 5.13935 79.9975 5.13935C79.3952 5.13935 78.8891 5.29769 78.4791 5.61439C78.0692 5.92675 77.7597 6.36492 77.5506 6.9289C77.3414 7.48854 77.2369 8.14145 77.2369 8.88764Z" fill="white"/>
<path id="Vector_13" d="M73.3661 7.22085C73.3661 8.62646 73.1214 9.84118 72.6321 10.865C72.1427 11.8889 71.4713 12.6784 70.6181 13.2337C69.7648 13.789 68.7902 14.0667 67.6943 14.0667C66.5984 14.0667 65.6238 13.789 64.7705 13.2337C63.9173 12.6784 63.2459 11.8889 62.7565 10.865C62.2672 9.84118 62.0225 8.62646 62.0225 7.22085C62.0225 5.81524 62.2672 4.60051 62.7565 3.57667C63.2459 2.55283 63.9173 1.76326 64.7705 1.20796C65.6238 0.652652 66.5984 0.375 67.6943 0.375C68.7902 0.375 69.7648 0.652652 70.6181 1.20796C71.4713 1.76326 72.1427 2.55283 72.6321 3.57667C73.1214 4.60051 73.3661 5.81524 73.3661 7.22085ZM71.8603 7.22085C71.8603 6.06686 71.6742 5.09291 71.3019 4.299C70.9339 3.50509 70.434 2.90423 69.8024 2.49643C69.175 2.08863 68.4723 1.88473 67.6943 1.88473C66.9163 1.88473 66.2115 2.08863 65.5799 2.49643C64.9525 2.90423 64.4527 3.50509 64.0804 4.299C63.7123 5.09291 63.5283 6.06686 63.5283 7.22085C63.5283 8.37484 63.7123 9.34879 64.0804 10.1427C64.4527 10.9366 64.9525 11.5375 65.5799 11.9453C66.2115 12.3531 66.9163 12.557 67.6943 12.557C68.4723 12.557 69.175 12.3531 69.8024 11.9453C70.434 11.5375 70.9339 10.9366 71.3019 10.1427C71.6742 9.34879 71.8603 8.37484 71.8603 7.22085Z" fill="white"/>
<path id="Vector_14" d="M50.7793 13.8841V3.8886H52.2098V5.39833H52.3102C52.4859 4.90377 52.8038 4.50247 53.2639 4.19445C53.724 3.88643 54.2426 3.73242 54.8199 3.73242C54.9286 3.73242 55.0646 3.73459 55.2277 3.73893C55.3908 3.74327 55.5142 3.74978 55.5979 3.75845V5.32024C55.5477 5.30723 55.4326 5.2877 55.2528 5.26167C55.0771 5.23131 54.891 5.21612 54.6944 5.21612C54.2259 5.21612 53.8076 5.31807 53.4395 5.52197C53.0756 5.72154 52.787 5.99919 52.5737 6.35493C52.3646 6.70633 52.26 7.10762 52.26 7.55881V13.8841H50.7793Z" fill="white"/>
<path id="Vector_15" d="M44.5372 14.0936C43.6086 14.0936 42.8076 13.881 42.1342 13.4559C41.465 13.0264 40.9484 12.4277 40.5845 11.6598C40.2248 10.8876 40.0449 9.98957 40.0449 8.96573C40.0449 7.94189 40.2248 7.03952 40.5845 6.25863C40.9484 5.4734 41.4545 4.8617 42.1028 4.42353C42.7554 3.98102 43.5166 3.75977 44.3866 3.75977C44.8886 3.75977 45.3842 3.84653 45.8736 4.02006C46.363 4.1936 46.8085 4.47559 47.21 4.86603C47.6116 5.25214 47.9315 5.76406 48.17 6.40179C48.4084 7.03952 48.5276 7.82476 48.5276 8.75749V9.40824H41.099V8.08072H47.0218C47.0218 7.51674 46.913 7.01349 46.6955 6.57099C46.4822 6.12848 46.1769 5.77925 45.7795 5.52329C45.3863 5.26733 44.922 5.13935 44.3866 5.13935C43.7969 5.13935 43.2866 5.29119 42.8557 5.59487C42.4291 5.89421 42.1008 6.28466 41.8707 6.76621C41.6407 7.24776 41.5256 7.76402 41.5256 8.31499V9.2C41.5256 9.95487 41.6511 10.5948 41.9021 11.1197C42.1572 11.6403 42.5107 12.0373 42.9624 12.3106C43.4141 12.5795 43.9391 12.714 44.5372 12.714C44.9262 12.714 45.2776 12.6576 45.5913 12.5448C45.9092 12.4277 46.1831 12.2542 46.4132 12.0242C46.6432 11.79 46.821 11.4993 46.9465 11.1522L48.377 11.5687C48.2264 12.072 47.9734 12.5145 47.6178 12.8962C47.2623 13.2737 46.8231 13.5687 46.3003 13.7813C45.7774 13.9895 45.1897 14.0936 44.5372 14.0936Z" fill="white"/>
<path id="Vector_16" d="M34.254 14.0936C33.3254 14.0936 32.5244 13.881 31.851 13.4559C31.1818 13.0264 30.6652 12.4277 30.3013 11.6598C29.9416 10.8876 29.7617 9.98957 29.7617 8.96573C29.7617 7.94189 29.9416 7.03952 30.3013 6.25863C30.6652 5.4734 31.1713 4.8617 31.8196 4.42353C32.4722 3.98102 33.2334 3.75977 34.1034 3.75977C34.6054 3.75977 35.101 3.84653 35.5904 4.02006C36.0798 4.1936 36.5253 4.47559 36.9268 4.86603C37.3284 5.25214 37.6483 5.76406 37.8868 6.40179C38.1252 7.03952 38.2444 7.82476 38.2444 8.75749V9.40824H30.8158V8.08072H36.7386C36.7386 7.51674 36.6298 7.01349 36.4123 6.57099C36.199 6.12848 35.8937 5.77925 35.4963 5.52329C35.1031 5.26733 34.6388 5.13935 34.1034 5.13935C33.5137 5.13935 33.0034 5.29119 32.5725 5.59487C32.1459 5.89421 31.8176 6.28466 31.5875 6.76621C31.3574 7.24776 31.2424 7.76402 31.2424 8.31499V9.2C31.2424 9.95487 31.3679 10.5948 31.6189 11.1197C31.874 11.6403 32.2275 12.0373 32.6792 12.3106C33.1309 12.5795 33.6559 12.714 34.254 12.714C34.643 12.714 34.9944 12.6576 35.3081 12.5448C35.626 12.4277 35.8999 12.2542 36.13 12.0242C36.36 11.79 36.5378 11.4993 36.6633 11.1522L38.0938 11.5687C37.9432 12.072 37.6902 12.5145 37.3346 12.8962C36.9791 13.2737 36.5399 13.5687 36.0171 13.7813C35.4942 13.9895 34.9065 14.0936 34.254 14.0936Z" fill="white"/>
<path id="Vector_17" d="M23.9336 13.8841V3.8886H25.3641V5.39833H25.4645C25.6402 4.90377 25.9581 4.50247 26.4182 4.19445C26.8783 3.88643 27.3969 3.73242 27.9742 3.73242C28.0829 3.73242 28.2188 3.73459 28.382 3.73893C28.5451 3.74327 28.6685 3.74978 28.7521 3.75845V5.32024C28.702 5.30723 28.5869 5.2877 28.4071 5.26167C28.2314 5.23131 28.0453 5.21612 27.8487 5.21612C27.3802 5.21612 26.9619 5.31807 26.5938 5.52197C26.2299 5.72154 25.9413 5.99919 25.728 6.35493C25.5189 6.70633 25.4143 7.10762 25.4143 7.55881V13.8841H23.9336Z" fill="white"/>
<path id="Vector_18" d="M16.8131 14.1196C16.2024 14.1196 15.6481 14.0003 15.1504 13.7617C14.6526 13.5188 14.2574 13.1696 13.9646 12.714C13.6718 12.2542 13.5254 11.6989 13.5254 11.0481C13.5254 10.4755 13.6341 10.0113 13.8516 9.65552C14.0692 9.29544 14.3599 9.01345 14.7238 8.80955C15.0877 8.60565 15.4892 8.45381 15.9284 8.35403C16.3718 8.24991 16.8172 8.16749 17.2648 8.10675C17.8504 8.02866 18.3251 7.97009 18.689 7.93105C19.0571 7.88766 19.3248 7.81608 19.4921 7.7163C19.6636 7.61652 19.7494 7.44299 19.7494 7.1957V7.14364C19.7494 6.50157 19.58 6.00267 19.2411 5.64693C18.9065 5.29119 18.3983 5.11332 17.7165 5.11332C17.0096 5.11332 16.4554 5.27383 16.0539 5.59487C15.6523 5.9159 15.37 6.25863 15.2069 6.62305L13.8015 6.10245C14.0524 5.49509 14.387 5.02221 14.8053 4.68382C15.2278 4.3411 15.6879 4.10249 16.1856 3.968C16.6876 3.82918 17.1811 3.75977 17.6663 3.75977C17.9759 3.75977 18.3314 3.79881 18.7329 3.8769C19.1387 3.95065 19.5298 4.10466 19.9062 4.33893C20.2868 4.5732 20.6026 4.92677 20.8536 5.39965C21.1046 5.87252 21.2301 6.50591 21.2301 7.29982V13.8854H19.7494V12.5318H19.6741C19.5737 12.7487 19.4064 12.9808 19.1721 13.2281C18.9379 13.4754 18.6263 13.6858 18.2373 13.8593C17.8483 14.0329 17.3735 14.1196 16.8131 14.1196ZM17.0389 12.7401C17.6245 12.7401 18.1181 12.6208 18.5196 12.3821C18.9254 12.1435 19.2307 11.8355 19.4356 11.4581C19.6448 11.0807 19.7494 10.6837 19.7494 10.2672V8.86161C19.6866 8.9397 19.5486 9.01129 19.3353 9.07636C19.1261 9.1371 18.8835 9.19133 18.6075 9.23905C18.3356 9.28243 18.07 9.32147 17.8106 9.35618C17.5555 9.38655 17.3484 9.41258 17.1895 9.43427C16.8047 9.48633 16.445 9.57093 16.1103 9.68806C15.7799 9.80086 15.5122 9.97222 15.3073 10.2022C15.1065 10.4277 15.0061 10.7358 15.0061 11.1262C15.0061 11.6598 15.1964 12.0633 15.577 12.3366C15.9619 12.6056 16.4491 12.7401 17.0389 12.7401Z" fill="white"/>
<path id="Vector_19" d="M11.664 4.72198H10.108C10.016 4.25778 9.85496 3.84998 9.62491 3.49858C9.39904 3.14718 9.12298 2.85217 8.79672 2.61357C8.47465 2.37062 8.11702 2.18841 7.72384 2.06694C7.33066 1.94547 6.92075 1.88473 6.49411 1.88473C5.71611 1.88473 5.01131 2.08863 4.37971 2.49643C3.7523 2.90423 3.25246 3.50509 2.88019 4.299C2.51211 5.09291 2.32806 6.06686 2.32806 7.22085C2.32806 8.37484 2.51211 9.34879 2.88019 10.1427C3.25246 10.9366 3.7523 11.5375 4.37971 11.9453C5.01131 12.3531 5.71611 12.557 6.49411 12.557C6.92075 12.557 7.33066 12.4962 7.72384 12.3748C8.11702 12.2533 8.47465 12.0732 8.79672 11.8346C9.12298 11.5917 9.39904 11.2945 9.62491 10.9431C9.85496 10.5874 10.016 10.1796 10.108 9.71971H11.664C11.5469 10.4008 11.3336 11.0104 11.024 11.5483C10.7145 12.0863 10.3297 12.5439 9.8696 12.9214C9.4095 13.2945 8.89293 13.5786 8.31989 13.7739C7.75103 13.9691 7.14244 14.0667 6.49411 14.0667C5.39822 14.0667 4.42363 13.789 3.57035 13.2337C2.71706 12.6784 2.04573 11.8889 1.55634 10.865C1.06696 9.84118 0.822266 8.62646 0.822266 7.22085C0.822266 5.81524 1.06696 4.60051 1.55634 3.57667C2.04573 2.55283 2.71706 1.76326 3.57035 1.20796C4.42363 0.652652 5.39822 0.375 6.49411 0.375C7.14244 0.375 7.75103 0.472612 8.31989 0.667836C8.89293 0.86306 9.4095 1.14939 9.8696 1.52682C10.3297 1.89991 10.7145 2.35544 11.024 2.89339C11.3336 3.427 11.5469 4.03653 11.664 4.72198Z" fill="white"/>
</g>
</svg>
