<svg width="69" height="14" viewBox="0 0 69 14" fill="none" xmlns="http://www.w3.org/2000/svg">
<g id="Contact">
<path id="Vector" d="M67.8993 3.51389V5.59627H62.0957V3.51389H67.8993ZM63.4133 1.11914H66.0861V10.4378C66.0861 10.6938 66.1237 10.8933 66.199 11.0365C66.2743 11.1753 66.3789 11.2729 66.5127 11.3293C66.6507 11.3857 66.8097 11.4139 66.9895 11.4139C67.115 11.4139 67.2405 11.4031 67.366 11.3814C67.4915 11.3554 67.5877 11.3359 67.6546 11.3228L68.075 13.3857C67.9411 13.4291 67.7529 13.479 67.5103 13.5354C67.2677 13.5961 66.9728 13.633 66.6256 13.646C65.9815 13.672 65.4168 13.5831 64.9316 13.3792C64.4506 13.1753 64.0762 12.8586 63.8085 12.4291C63.5409 11.9996 63.4091 11.4573 63.4133 10.8022V1.11914Z" fill="white"/>
<path id="Vector_2" d="M56.7579 13.7046C55.7708 13.7046 54.9217 13.4877 54.2106 13.0539C53.5037 12.6157 52.96 12.0083 52.5793 11.2318C52.2029 10.4552 52.0146 9.56154 52.0146 8.55071C52.0146 7.52687 52.205 6.62884 52.5856 5.85662C52.9704 5.08007 53.5163 4.47487 54.2232 4.04104C54.93 3.60287 55.7708 3.38379 56.7454 3.38379C57.5861 3.38379 58.3223 3.54214 58.9539 3.85883C59.5855 4.17553 60.0853 4.62021 60.4534 5.19286C60.8215 5.76552 61.0243 6.43796 61.062 7.21017H58.5398C58.4687 6.71127 58.2804 6.30998 57.9751 6.0063C57.6739 5.69828 57.2787 5.54426 56.7893 5.54426C56.3752 5.54426 56.0134 5.6614 55.7039 5.89567C55.3985 6.1256 55.1601 6.46182 54.9886 6.90432C54.8171 7.34683 54.7314 7.88261 54.7314 8.51167C54.7314 9.1494 54.815 9.69169 54.9823 10.1385C55.1538 10.5854 55.3943 10.9259 55.7039 11.1602C56.0134 11.3945 56.3752 11.5116 56.7893 11.5116C57.0946 11.5116 57.3686 11.4465 57.6112 11.3164C57.858 11.1862 58.0608 10.9975 58.2198 10.7502C58.3829 10.4986 58.4896 10.1971 58.5398 9.8457H61.062C61.0202 10.6092 60.8194 11.2817 60.4597 11.863C60.1041 12.44 59.6127 12.8912 58.9852 13.2166C58.3578 13.5419 57.6154 13.7046 56.7579 13.7046Z" fill="white"/>
<path id="Vector_3" d="M44.902 13.6981C44.2871 13.6981 43.7392 13.5875 43.2581 13.3662C42.7771 13.1406 42.3965 12.8088 42.1162 12.3706C41.8402 11.9281 41.7021 11.3771 41.7021 10.7177C41.7021 10.1624 41.8004 9.69602 41.997 9.31859C42.1936 8.94116 42.4613 8.63748 42.8001 8.40755C43.1389 8.17762 43.5237 8.00408 43.9546 7.88695C44.3896 7.76982 44.8455 7.68739 45.3223 7.63967C45.8828 7.57893 46.3346 7.52253 46.6776 7.47047C47.0205 7.41407 47.2694 7.33165 47.4242 7.22319C47.5789 7.11473 47.6563 6.95421 47.6563 6.74164V6.70259C47.6563 6.29045 47.5308 5.97159 47.2799 5.746C47.0331 5.5204 46.6817 5.40761 46.2258 5.40761C45.7448 5.40761 45.3621 5.51824 45.0776 5.73949C44.7932 5.9564 44.605 6.22972 44.513 6.55943L42.041 6.35119C42.1664 5.74383 42.4132 5.21889 42.7813 4.77639C43.1494 4.32954 43.6241 3.98681 44.2055 3.74821C44.7911 3.50526 45.4687 3.38379 46.2384 3.38379C46.7738 3.38379 47.2861 3.44886 47.7755 3.57901C48.2691 3.70916 48.7062 3.91089 49.0868 4.18421C49.4716 4.45752 49.7749 4.80892 49.9966 5.23841C50.2183 5.66357 50.3291 6.17332 50.3291 6.76767V13.5094H47.7944V12.1233H47.7191C47.5643 12.4357 47.3573 12.7111 47.0979 12.9498C46.8386 13.184 46.527 13.3684 46.1631 13.5029C45.7992 13.633 45.3788 13.6981 44.902 13.6981ZM45.6674 11.7849C46.0606 11.7849 46.4078 11.7047 46.7089 11.5441C47.0101 11.3793 47.2464 11.158 47.4179 10.8804C47.5894 10.6027 47.6751 10.2882 47.6751 9.9368V8.87608C47.5915 8.93248 47.4765 8.98454 47.3301 9.03226C47.1879 9.07565 47.0268 9.11686 46.847 9.15591C46.6671 9.19061 46.4872 9.22315 46.3074 9.25352C46.1275 9.27955 45.9644 9.30341 45.818 9.3251C45.5043 9.37282 45.2303 9.44874 44.9961 9.55286C44.7618 9.65698 44.5799 9.79797 44.4502 9.97585C44.3206 10.1494 44.2557 10.3663 44.2557 10.6266C44.2557 11.004 44.3875 11.2925 44.651 11.4921C44.9187 11.6873 45.2575 11.7849 45.6674 11.7849Z" fill="white"/>
<path id="Vector_4" d="M40.414 3.51389V5.59627H34.6104V3.51389H40.414ZM35.9279 1.11914H38.6007V10.4378C38.6007 10.6938 38.6384 10.8933 38.7137 11.0365C38.7889 11.1753 38.8935 11.2729 39.0274 11.3293C39.1654 11.3857 39.3243 11.4139 39.5042 11.4139C39.6297 11.4139 39.7552 11.4031 39.8806 11.3814C40.0061 11.3554 40.1023 11.3359 40.1693 11.3228L40.5896 13.3857C40.4558 13.4291 40.2676 13.479 40.025 13.5354C39.7824 13.5961 39.4875 13.633 39.1403 13.646C38.4961 13.672 37.9315 13.5831 37.4463 13.3792C36.9653 13.1753 36.5909 12.8586 36.3232 12.4291C36.0555 11.9996 35.9237 11.4573 35.9279 10.8022V1.11914Z" fill="white"/>
<path id="Vector_5" d="M26.9687 7.73077V13.5094H24.2959V3.51394H26.8432V5.27746H26.9561C27.1695 4.69613 27.5271 4.23627 28.029 3.89788C28.531 3.55515 29.1395 3.38379 29.8548 3.38379C30.524 3.38379 31.1075 3.53563 31.6053 3.83931C32.103 4.14299 32.4899 4.57682 32.766 5.1408C33.0421 5.70044 33.1801 6.36854 33.1801 7.1451V13.5094H30.5073V7.63967C30.5115 7.02797 30.3609 6.55075 30.0556 6.20803C29.7502 5.86096 29.3299 5.68743 28.7945 5.68743C28.4348 5.68743 28.1169 5.76769 27.8408 5.92821C27.5689 6.08872 27.3556 6.32299 27.2008 6.63101C27.0503 6.93469 26.9729 7.30128 26.9687 7.73077Z" fill="white"/>
<path id="Vector_6" d="M17.8146 13.7046C16.84 13.7046 15.9971 13.4899 15.2861 13.0604C14.5792 12.6266 14.0333 12.0235 13.6485 11.2513C13.2637 10.4748 13.0713 9.57455 13.0713 8.55071C13.0713 7.51819 13.2637 6.61583 13.6485 5.84361C14.0333 5.06705 14.5792 4.46403 15.2861 4.03453C15.9971 3.6007 16.84 3.38379 17.8146 3.38379C18.7891 3.38379 19.6299 3.6007 20.3368 4.03453C21.0478 4.46403 21.5958 5.06705 21.9806 5.84361C22.3654 6.61583 22.5578 7.51819 22.5578 8.55071C22.5578 9.57455 22.3654 10.4748 21.9806 11.2513C21.5958 12.0235 21.0478 12.6266 20.3368 13.0604C19.6299 13.4899 18.7891 13.7046 17.8146 13.7046ZM17.8271 11.5572C18.2705 11.5572 18.6407 11.427 18.9376 11.1667C19.2346 10.9021 19.4584 10.542 19.609 10.0865C19.7637 9.63095 19.8411 9.11252 19.8411 8.53119C19.8411 7.94986 19.7637 7.43143 19.609 6.97591C19.4584 6.52038 19.2346 6.1603 18.9376 5.89567C18.6407 5.63103 18.2705 5.49871 17.8271 5.49871C17.3795 5.49871 17.0031 5.63103 16.6978 5.89567C16.3966 6.1603 16.1686 6.52038 16.0139 6.97591C15.8633 7.43143 15.788 7.94986 15.788 8.53119C15.788 9.11252 15.8633 9.63095 16.0139 10.0865C16.1686 10.542 16.3966 10.9021 16.6978 11.1667C17.0031 11.427 17.3795 11.5572 17.8271 11.5572Z" fill="white"/>
<path id="Vector_7" d="M11.5633 4.84806H8.81519C8.765 4.4793 8.66252 4.15176 8.50776 3.86543C8.353 3.57476 8.15432 3.32748 7.91171 3.12358C7.66911 2.91968 7.38887 2.7635 7.07098 2.65504C6.75727 2.54659 6.41637 2.49236 6.04829 2.49236C5.38323 2.49236 4.80391 2.66372 4.31035 3.00645C3.81678 3.34483 3.43406 3.8394 3.16218 4.49015C2.8903 5.13655 2.75436 5.92179 2.75436 6.84585C2.75436 7.79594 2.8903 8.59418 3.16218 9.24059C3.43824 9.887 3.82305 10.3751 4.31662 10.7048C4.81019 11.0345 5.38114 11.1993 6.02947 11.1993C6.39337 11.1993 6.73008 11.1494 7.03961 11.0497C7.35331 10.9499 7.63147 10.8046 7.87407 10.6137C8.11667 10.4184 8.31744 10.182 8.47639 9.90435C8.63952 9.6267 8.75245 9.31001 8.81519 8.95426L11.5633 8.96728C11.4922 9.57898 11.3144 10.169 11.03 10.7373C10.7497 11.3013 10.3712 11.8067 9.89435 12.2535C9.4217 12.6961 8.85702 13.0475 8.20033 13.3078C7.54781 13.5637 6.80955 13.6917 5.98555 13.6917C4.83947 13.6917 3.81469 13.4227 2.91121 12.8848C2.01191 12.3468 1.30084 11.5681 0.777996 10.5486C0.259332 9.52909 0 8.29484 0 6.84585C0 5.39251 0.263515 4.1561 0.790544 3.1366C1.31757 2.11709 2.03283 1.34054 2.93631 0.806926C3.83979 0.268975 4.8562 0 5.98555 0C6.73008 0 7.42024 0.108458 8.05602 0.325373C8.69598 0.542288 9.26275 0.858985 9.75632 1.27546C10.2499 1.6876 10.6514 2.19301 10.961 2.7917C11.2747 3.39039 11.4754 4.07584 11.5633 4.84806Z" fill="white"/>
</g>
</svg>
