<svg xmlns="http://www.w3.org/2000/svg" xmlns:xlink="http://www.w3.org/1999/xlink" width="64" zoomAndPan="magnify" viewBox="0 0 48 48" height="64" preserveAspectRatio="xMidYMid meet" version="1.2"><defs><clipPath id="5622ca204a"><path d="M 0.488281 0 L 47.507812 0 L 47.507812 47.019531 L 0.488281 47.019531 Z M 0.488281 0 "/></clipPath><clipPath id="cf6841b529"><path d="M 0.488281 0 L 47.507812 0 L 47.507812 47.019531 L 0.488281 47.019531 Z M 0.488281 0 "/></clipPath></defs><g id="69d59e724e"><g clip-rule="nonzero" clip-path="url(#5622ca204a)"><path style=" stroke:none;fill-rule:nonzero;fill:#f9ba00;fill-opacity:1;" d="M 47.5 23.503906 C 47.5 36.484375 36.976562 47.011719 23.992188 47.011719 C 11.007812 47.011719 0.484375 36.484375 0.484375 23.503906 C 0.484375 10.519531 11.007812 -0.00390625 23.992188 -0.00390625 C 36.976562 -0.00390625 47.5 10.519531 47.5 23.503906 "/></g><path style=" stroke:none;fill-rule:nonzero;fill:#ffffff;fill-opacity:1;" d="M 24.652344 30.5625 L 23.003906 30.5625 C 22.324219 30.5625 21.710938 30.824219 21.230469 31.316406 C 20.75 31.804688 20.496094 32.394531 20.476562 33.070312 L 20.476562 34.570312 C 20.476562 35.25 20.730469 35.855469 21.203125 36.332031 C 21.679688 36.804688 22.285156 37.058594 22.960938 37.058594 L 24.691406 37.058594 C 25.367188 37.058594 25.976562 36.804688 26.449219 36.332031 C 26.925781 35.855469 27.175781 35.246094 27.175781 34.570312 L 27.175781 33.046875 C 27.175781 32.382812 26.917969 31.777344 26.425781 31.292969 C 25.929688 30.808594 25.332031 30.5625 24.652344 30.5625 "/><path style=" stroke:none;fill-rule:nonzero;fill:#ffffff;fill-opacity:1;" d="M 26.523438 10.726562 C 26.035156 10.21875 25.414062 9.949219 24.734375 9.949219 L 23.003906 9.949219 C 22.320312 9.949219 21.722656 10.195312 21.230469 10.679688 C 20.722656 11.175781 20.480469 11.796875 20.519531 12.480469 L 21.363281 25.917969 C 21.402344 26.5625 21.648438 27.132812 22.09375 27.605469 C 22.554688 28.097656 23.175781 28.359375 23.886719 28.359375 C 24.539062 28.359375 25.128906 28.109375 25.597656 27.644531 C 26.054688 27.183594 26.316406 26.609375 26.371094 25.933594 L 27.21875 12.523438 L 27.21875 12.519531 C 27.257812 11.859375 27.015625 11.238281 26.523438 10.726562 "/><g clip-rule="nonzero" clip-path="url(#cf6841b529)"><path style=" stroke:none;fill-rule:nonzero;fill:#f9ba00;fill-opacity:1;" d="M 47.5 23.503906 C 47.5 36.484375 36.976562 47.011719 23.992188 47.011719 C 11.007812 47.011719 0.484375 36.484375 0.484375 23.503906 C 0.484375 10.519531 11.007812 -0.00390625 23.992188 -0.00390625 C 36.976562 -0.00390625 47.5 10.519531 47.5 23.503906 "/></g><path style=" stroke:none;fill-rule:nonzero;fill:#ffffff;fill-opacity:1;" d="M 24.652344 30.5625 L 23.003906 30.5625 C 22.324219 30.5625 21.710938 30.824219 21.230469 31.316406 C 20.75 31.804688 20.496094 32.394531 20.476562 33.070312 L 20.476562 34.570312 C 20.476562 35.25 20.730469 35.855469 21.203125 36.332031 C 21.679688 36.804688 22.285156 37.058594 22.960938 37.058594 L 24.691406 37.058594 C 25.367188 37.058594 25.976562 36.804688 26.449219 36.332031 C 26.925781 35.855469 27.175781 35.246094 27.175781 34.570312 L 27.175781 33.046875 C 27.175781 32.382812 26.917969 31.777344 26.425781 31.292969 C 25.929688 30.808594 25.332031 30.5625 24.652344 30.5625 "/><path style=" stroke:none;fill-rule:nonzero;fill:#ffffff;fill-opacity:1;" d="M 26.523438 10.726562 C 26.035156 10.21875 25.414062 9.949219 24.734375 9.949219 L 23.003906 9.949219 C 22.320312 9.949219 21.722656 10.195312 21.230469 10.679688 C 20.722656 11.175781 20.480469 11.796875 20.519531 12.480469 L 21.363281 25.917969 C 21.402344 26.5625 21.648438 27.132812 22.09375 27.605469 C 22.554688 28.097656 23.175781 28.359375 23.886719 28.359375 C 24.539062 28.359375 25.128906 28.109375 25.597656 27.644531 C 26.054688 27.183594 26.316406 26.609375 26.371094 25.933594 L 27.21875 12.523438 L 27.21875 12.519531 C 27.257812 11.859375 27.015625 11.238281 26.523438 10.726562 "/></g></svg>